<!DOCTYPE svg PUBLIC "-//W3C//DTD SVG 1.1//EN" "http://www.w3.org/Graphics/SVG/1.1/DTD/svg11.dtd">
<svg xmlns="http://www.w3.org/2000/svg" viewBox="0 0 473 307">
<path fill="#fbfbfb" stroke="#fbfbfb" d="M137.206 45.48c-5.091 4.284-5.327 5.912-5.004 34.592.268 23.751.495 26.833 2.239 30.428 1.151 2.371 11.507 13.67 25.437 27.75L183.373 162H155.758L144 150.5c-10.73-10.495-12.083-11.5-15.475-11.5-9.568 0-15.211 9.537-10.953 18.511 2.517 5.303 22.499 24.149 28.634 27.005 5.164 2.404 5.887 2.465 29.422 2.474 18.099.008 24.387.323 25.167 1.263.608.732 1.178 8.932 1.372 19.75l.333 18.497 3.102 5.5c11.457 20.312 39.582 19.212 50.134-1.961 1.383-2.774 1.872-6.998 2.264-19.539l.5-16 6.749-.296c6.693-.293 6.742-.276 5.8 2-.988 2.392-7.052 47.196-7.05 52.099l.001 2.803 6.55-.212c7.775-.252 7.996-.518 9.01-10.808l.725-7.353 4.607 8.884 4.608 8.883h7c9.14 0 9.297-1.07 2.043-13.88-6.487-11.454-6.401-11.022-2.523-12.628 11.798-4.887 13.602-23.999 2.793-29.589l-3.01-1.556 3.888-1.924c4.73-2.34 17.184-13.559 22.455-20.227 7.867-9.952 3.504-21.696-8.058-21.696-4.299 0-6.708 1.602-15.088 10.034-8.505 8.557-10.707 9.966-15.576 9.966-2.368 0-4.615-.5-4.993-1.112-.401-.649 7.052-8.873 17.898-19.75 23.961-24.029 22.621-21.034 22.647-50.638.024-26.128-.477-28.33-7.226-31.779-3.115-1.592-4.289-1.729-6.935-.806-8.629 3.008-9.815 6.692-9.815 30.484v19.155l-7.032 6.973-7.032 6.973-5.718-6.01a2003.512 2003.512 0 0 1-11.468-12.176l-5.75-6.166-.048-14.824c-.064-19.638-2.282-24.266-11.655-24.309C236 64.967 234.5 68.397 234.5 92c0 23.729-.577 22.301 16.562 40.985l12.159 13.256-9.361 9.53c-5.148 5.242-10.63 10.829-12.183 12.417-6.154 6.294-7.144 10.422-7.508 31.307-.336 19.276-.777 21.505-4.256 21.505-3.362 0-3.913-3.33-3.919-23.684-.007-28.129.034-28.031-20.415-48.599-6.918-6.959-12.579-13.283-12.579-14.055 0-.772 5.738-7.585 12.75-15.141 14.051-15.141 17.735-20.006 19.235-25.408 1.582-5.694 1.299-39.498-.364-43.477-4.117-9.854-16.178-10.195-21.141-.597-1.136 2.197-1.48 6.808-1.48 19.854v16.993l-5.75 6.298c-3.162 3.464-6.2 6.811-6.75 7.438-4.321 4.927-14.91 15.378-15.581 15.378-.459 0-4.678-3.87-9.376-8.6L156 98.799V76.301c0-24.431-.509-27.196-5.762-31.328-3.583-2.819-9.346-2.595-13.032.507M46.817 193.724c-3.059.323-3.777.845-4.236 3.082-1.378 6.705-7.581 48.771-7.581 51.41v2.948l12.417-.519c20.267-.848 25.506-5.103 29.007-23.559 5.545-29.229-.816-36.397-29.607-33.362m58.285.273c-7.736.608-6.046-2.185-17.107 28.277-11.072 30.496-10.953 28.981-2.245 28.556l6.75-.33 1.868-5.75c1.786-5.498 2.016-5.75 5.25-5.75 3.239 0 3.383.159 3.396 3.75.026 7.3.702 8.252 5.853 8.236 8.075-.023 9.139-.65 9.091-5.353-.086-8.513-4.612-50.679-5.517-51.395-.517-.409-3.82-.518-7.339-.241m25.75-.291c-2.911.448-3.816 2.462-3.838 8.544L127 206h4.5c5.377 0 5.229-2.072 1.5 21-1.644 10.175-2.992 19.754-2.995 21.286l-.005 2.786 7.086-.178c6.184-.157 7.194-.448 7.93-2.287.666-1.664 5.994-39.814 5.986-42.857-.001-.412 2.007-.75 4.463-.75 5.219 0 6.535-1.598 6.535-7.934V193l-14.25.15c-7.838.082-15.442.333-16.898.556m52.25.291c-7.709.606-5.92-2.267-17.615 28.3-11.692 30.562-11.566 28.955-2.237 28.532l7.25-.329 1.868-5.75c1.786-5.498 2.016-5.75 5.25-5.75 3.239 0 3.383.159 3.396 3.75.026 7.3.702 8.252 5.853 8.236 8.075-.023 9.139-.65 9.091-5.353-.086-8.513-4.612-50.679-5.517-51.395-.517-.409-3.82-.518-7.339-.241m136.091-.284c-1.268.243-2.708 1.419-3.199 2.614-.955 2.321-6.997 47.25-6.995 52.013l.001 2.839 15.418-.339c8.481-.187 15.756-.678 16.168-1.091.412-.413.955-3.226 1.206-6.25l.456-5.499h-8.624c-9.545 0-9.228.288-7.982-7.25l.62-3.75h7.252c8.088 0 8.444-.346 8.472-8.25L342 215h-14.25l.625-3.125c.344-1.719.625-3.744.625-4.5 0-.957 1.33-1.375 4.375-1.375 8.695 0 10.3-.768 11.645-5.57 2.027-7.24 1.689-7.449-11.739-7.294-6.479.075-12.819.335-14.088.577m39.123-.016c-1.401.273-2.382 1.389-2.736 3.114-1.38 6.713-7.58 48.769-7.58 51.412v2.956l15.418-.339c8.481-.187 15.756-.678 16.168-1.091.412-.413.955-3.226 1.206-6.25l.456-5.499h-8.124c-8.985 0-8.723.254-7.482-7.25l.62-3.75h6.752c7.525 0 7.944-.433 7.972-8.25L381 215h-13.25l.625-3.125c.344-1.719.625-3.683.625-4.366 0-.822 2.373-1.41 7.036-1.744 8.437-.603 8.186-.395 8.756-7.266l.456-5.499-12.374.136c-6.806.075-13.357.327-14.558.561m39.877.016c-3.343.639-3.778 2.363-7.144 28.287-4.036 31.085-4.158 29.003 1.701 28.986 9.567-.027 9.22.421 11.312-14.609l1.131-8.122 6.939-.497c8.331-.596 8.09-.394 8.66-7.259l.456-5.499H406.75l.625-3.125c.344-1.719.625-3.744.625-4.5 0-.957 1.33-1.375 4.375-1.375 8.695 0 10.3-.768 11.645-5.57 2.027-7.24 1.689-7.449-11.739-7.294-6.479.075-12.819.335-14.088.577M54.059 220.505c-2.418 17.96-2.379 18.344 1.711 16.91 3.283-1.151 4.468-5.106 6.142-20.493 1.187-10.906 1.063-11.417-3.012-12.422l-2.6-.641-2.241 16.646m229.469-9.926c-.826 7.722-.412 8.471 3.196 5.778 4.291-3.204 5.767-7.866 3.278-10.355-3.944-3.944-5.693-2.707-6.474 4.577m-175.232-.951c-1.986 1.687-2.227 2.927-2.431 12.551-.246 11.543.239 12.964 4.992 14.621l2.741.956-1.271-13.128c-1.819-18.772-1.405-17.23-4.031-15m248.337 6.373c-.83 3.918-2.633 15.524-2.633 16.953 0 1.051.292 1.049 1.566-.009 4.234-3.514 5.724-11.986 2.98-16.944l-1.383-2.499-.53 2.499m-26.966 3.666c-2.312 2.311-.523 4.333 3.833 4.333 4.133 0 4.5-.204 4.5-2.5 0-2.232-.411-2.5-3.833-2.5-2.109 0-4.134.3-4.5.667m-228.978 4.701c-.432 1.577-.539 3.115-.238 3.417 1.043 1.043 1.698-.613 1.362-3.444l-.337-2.841-.787 2.868m78 0c-.432 1.577-.539 3.115-.238 3.417 1.043 1.043 1.698-.613 1.362-3.444l-.337-2.841-.787 2.868" fill-rule="evenodd"/>
<path fill="#d9d8d3" stroke="#d9d8d3" d="m136.766 46.919-3.266 2.92v27.33c0 26.223.089 27.497 2.194 31.431 1.206 2.255 13.019 14.935 26.25 28.179C175.175 150.022 186 161.34 186 161.929c0 .714-5.051 1.071-15.168 1.071h-15.169l-11.747-11.5c-13.332-13.051-16.451-14.287-22.727-9.006-7.276 6.123-5.295 11.507 9.827 26.7C146.452 184.703 145.518 184.383 177 185l25.5.5.588 19c.501 16.174.892 19.669 2.63 23.5 7.829 17.26 29.79 21.562 42.752 8.375 6.554-6.669 7.719-10.642 8.299-28.311.32-9.753.925-15.838 1.621-16.299.61-.404 8.535-.744 17.61-.755 22.472-.029 22.152.094 36.191-13.876 14.014-13.946 15.368-17.34 9.758-24.472-1.788-2.273-2.854-2.662-7.291-2.662h-5.198l-9.46 9.5-9.46 9.5h-8.27c-4.549 0-8.27-.315-8.27-.699 0-.385 9.158-9.947 20.35-21.25C319.475 121.678 318 124.922 318 95.044c0-18.634-.232-21.938-1.69-24.071-3.266-4.78-8.123-6.496-12.825-4.531-6.165 2.576-6.485 3.85-6.485 25.846 0 12.784-.4 20.591-1.125 21.945-1.41 2.636-13.714 14.767-14.976 14.767-.514 0-3.739-3.01-7.167-6.69L266 114.012c-.825-.885-3.187-3.501-5.25-5.813l-3.75-4.205V92.137C257 70.283 255.204 66 246.038 66c-8.849 0-11.043 4.738-11.026 23.815.019 21.909 1.054 24.164 20.507 44.685 5.214 5.5 9.48 10.284 9.48 10.631.001.347-5.001 5.747-11.114 12-18.751 19.18-18.855 19.43-18.873 45.419-.013 18.261-.319 19.45-5.012 19.45-4.802 0-5-.931-5-23.464 0-18.574-.236-21.711-2-26.536-1.1-3.009-2-5.659-2-5.887 0-.229-7.014-7.519-15.586-16.2-11.451-11.596-15.364-16.166-14.75-17.222.46-.791 5.856-6.783 11.992-13.315 22.913-24.393 21.74-21.921 22.173-46.728C225.247 48.704 223.469 44 214 44c-8.961 0-10.981 5.045-11.009 27.5l-.02 16-10.235 10.995c-5.63 6.048-12.129 13.023-14.442 15.5l-4.206 4.505-9.544-9.48L155 99.54V76.892c0-24.319-.632-28.12-5.208-31.325-3.688-2.583-9.273-2.003-13.026 1.352M47.75 193.735c-2.612.206-4.75.583-4.75.838 0 .256-1.839 12.406-4.086 27.001-2.247 14.595-3.829 27.205-3.515 28.023.887 2.311 22.567.914 28.441-1.833 8.709-4.072 12.881-14.411 13.827-34.264.858-18.007-4.801-21.745-29.917-19.765m86.75.183-6 .582-.88 4.191c-1.251 5.963-.451 7.309 4.349 7.309 4.96 0 4.899-1.477.95 23.022-3.735 23.17-3.894 22.457 4.819 21.564 3.682-.377 6.832-.823 6.999-.99.218-.218 6.237-42.798 6.26-44.291.002-.108 2.14-.333 4.753-.5 4.701-.302 4.759-.349 5.63-4.496 1.482-7.061 1.079-7.332-10.599-7.141-5.654.093-12.981.43-16.281.75m142-.183c-2.2.219-4.344.735-4.764 1.146-1.126 1.101-8.037 52.893-7.31 54.786.516 1.344 1.643 1.506 6.765.971 7.458-.78 6.485.387 8.079-9.688l1.336-8.45 4.707 9.25c5.148 10.117 4.771 9.886 14.047 8.614 5.97-.818 5.934-1.215-1.296-14.076l-5.935-10.56 4.185-2.114c7.913-3.996 12.134-17.088 7.8-24.194-3.562-5.842-10.896-7.352-27.614-5.685m46 .005c-2.75.209-5.344.719-5.764 1.134-1.132 1.117-8.034 52.906-7.305 54.807.696 1.813 28.967 1.321 30.825-.537.495-.495.977-3.092 1.072-5.772l.172-4.872-8.647-.287c-7.543-.251-8.603-.506-8.305-2 .188-.942.612-3.4.942-5.463l.601-3.75h6.986c7.823 0 8.224-.356 8.35-7.433l.073-4.067h-6.75c-6.537 0-6.75-.079-6.736-2.5.033-6.037.67-6.618 8.31-7.589l7.176-.911 1.35-4.267c2.141-6.767 1.542-7.26-8.569-7.053-4.829.099-11.031.351-13.781.56m39.078.167c-4.14.499-5.042.991-5.669 3.093-1.535 5.143-8.055 51.176-7.467 52.711.686 1.786 28.981 1.266 30.814-.567.495-.495.977-3.092 1.072-5.772l.172-4.872-8.146-.289c-7.069-.25-8.101-.515-7.805-2 .187-.941.611-3.398.941-5.461l.601-3.75h6.486c7.269 0 7.725-.432 7.85-7.433l.073-4.067-6.25.01c-6.013.009-6.249-.086-6.236-2.5.033-6.047.667-6.628 8.31-7.599l7.176-.911.88-4.191c1.451-6.914.92-7.331-9.099-7.152-4.829.087-10.996.424-13.703.75m39.922-.167c-2.75.209-5.344.719-5.764 1.134-1.126 1.111-8.036 52.901-7.311 54.79.657 1.714 10.896 1.415 12.681-.37.451-.451 1.486-5.251 2.3-10.666 1.743-11.604.541-10.12 9.094-11.224l7-.904.88-4.191c1.427-6.801.647-7.607-6.893-7.127-6.396.407-6.487.377-6.473-2.135.032-6.088.659-6.664 8.31-7.636l7.176-.911 1.35-4.267c2.141-6.767 1.542-7.26-8.569-7.053-4.829.099-11.031.351-13.781.56m-303.931 3.51c-5.985 14.636-18.619 51.177-18.133 52.444.504 1.312 1.67 1.475 6.755.944 7.29-.762 6.673-.288 8.201-6.303 1.151-4.534 1.447-4.854 4.748-5.135l3.521-.301.92 5.801.919 5.8 5.821-.121c3.201-.066 6.3-.6 6.886-1.186.945-.945-1.576-34.27-3.854-50.943l-.58-4.25h-6.938c-6.887 0-6.947.023-8.266 3.25m78.601-1.5c-3.337 6.484-20.231 52.648-19.738 53.934.511 1.331 1.692 1.477 7.306.902 7.91-.811 7.129-.246 8.654-6.251 1.151-4.534 1.447-4.854 4.748-5.135l3.521-.301.92 5.801.919 5.8 5.821-.121c3.201-.066 6.3-.6 6.886-1.186.945-.945-1.576-34.27-3.854-50.943l-.58-4.25h-6.851c-5.516 0-7.027.341-7.752 1.75m-124.42.953c-3.163.218-5.75.859-5.75 1.424s-1.575 11.178-3.5 23.584c-1.925 12.406-3.5 23.222-3.5 24.036 0 1.235 1.698 1.417 10.257 1.1 18.552-.687 21.936-4.88 24.888-30.846 1.879-16.524-2.899-20.641-22.395-19.298m91.109.043-11.641.316-.436 2.969c-.432 2.942-.392 2.969 4.391 2.969 5.836 0 5.677-1.905 1.84 22-3.8 23.679-3.876 22 .987 22 2.2 0 4-.173 4-.384 0-.802 5.02-38.266 5.543-41.366.53-3.144.706-3.25 5.389-3.25 4.614 0 4.862-.14 5.281-3 .376-2.559.135-2.968-1.636-2.785-1.142.118-7.315.357-13.718.531m137.391-.059c-3.972.26-6.251.847-6.253 1.611-.002.661-1.35 11.102-2.997 23.202-3.739 27.475-3.769 25.5.385 25.5h3.385l1.149-8.25c2.449-17.582 3.036-17.717 10.823-2.49l5.758 11.26 3.674-.51 3.674-.51-5.907-10.5c-7.096-12.613-7.065-12.299-1.452-14.443 5.47-2.089 7.956-5.074 9.466-11.368 2.66-11.091-3.162-14.713-21.705-13.502m48.5.059c-6.777.227-9.759.697-9.78 1.54-.017.668-1.51 12.172-3.318 25.565l-3.288 24.352 3.568-.591c1.962-.324 7.679-.595 12.705-.601l9.136-.011.44-3 .441-3h-17.912l.69-6.25c1.249-11.305.781-10.75 9.063-10.75 7.229 0 7.281-.019 7.694-2.837l.417-2.837-7.457.478-7.458.479.688-5.85c1.282-10.907 1.82-11.389 12.764-11.422 2.392-.007 3.851-.554 4.25-1.593 1.082-2.819.646-4.423-1.143-4.209-.962.115-6.137.357-11.5.537m40.122-.002-9.627.325-2.698 17.216c-1.483 9.468-3.284 20.978-4.001 25.576l-1.305 8.362 3.63-.601c1.996-.33 7.74-.605 12.766-.611l9.136-.011.44-3 .441-3h-16.912l.69-6.25c1.243-11.252.838-10.75 8.676-10.75 6.851 0 6.892-.016 6.894-2.75l.002-2.75-6.65.342-6.651.342.682-5.8C365.671 202.441 366.14 202 376.512 202c3.97 0 4.291-.205 4.701-3 .339-2.307.076-2.952-1.136-2.791-.867.115-5.909.356-11.205.535m40.518.037-11.11.282-2.619 19.218c-1.441 10.571-2.916 21.807-3.278 24.969l-.658 5.75h7.045l1.149-8.25c2.103-15.099 1.803-14.75 12.706-14.75 4.106 0 4.375-.169 4.377-2.75l.003-2.75-7.129.337-7.128.337.724-6.761c1.071-9.993 1.556-10.413 12.045-10.413 3.768 0 4.343-.306 4.923-2.618.81-3.226 2.055-2.933-11.05-2.601m-309.184 2.969c-1.87 5.201-16.049 43.752-16.734 45.5-.576 1.468-.11 1.75 2.893 1.75 3.478 0 3.624-.156 5.178-5.5l1.599-5.5h6.304c6.889 0 7.554.798 7.554 9.062 0 2.686.168 2.786 3.75 2.234 2.063-.319 3.799-.628 3.859-.688.06-.059-.926-10.458-2.192-23.108s-2.328-23.787-2.359-24.75c-.108-3.282-8.622-2.418-9.852 1m71.817 16c-4.001 10.313-8.338 21.563-9.64 25l-2.366 6.25h3.964c3.943 0 3.971-.027 5.562-5.5l1.599-5.5h6.312c6.951 0 7.502.567 7.532 7.75.013 3.094.197 3.25 3.811 3.25h3.797l-2.256-22.75c-1.241-12.512-2.275-23.762-2.297-25-.036-1.982-.559-2.25-4.393-2.25h-4.351l-7.274 18.75m-119.46-12.5c-.761 3.612-4.566 34.031-4.564 36.5.002 4.293 11.392 2.125 13.95-2.655 1.492-2.788 4.042-19.669 4.047-26.788.005-7.349-1.825-9.307-8.699-9.307-3.609 0-4.331.343-4.734 2.25m228.113 0c-.297 1.238-.854 5.963-1.237 10.5l-.697 8.25h2.894c9.956 0 17.615-13.511 10.729-18.927-3.834-3.016-10.947-2.908-11.689.177m-224.683 1c-.004.137-.904 6.936-2 15.109-2.621 19.542-2.623 19.484.568 18.874 4.522-.864 6.267-6.288 8.008-24.884.614-6.556.499-7.242-1.384-8.25-1.817-.972-5.173-1.521-5.192-.849m227.649 3.5c-1.016 6.146-.762 10.25.635 10.25 4.795 0 9.23-8.677 6.166-12.063-3.026-3.344-6.083-2.529-6.801 1.813m-185.019 11.5c-4.451 12.528-4.457 12.754-.373 12.736 8.169-.034 8.984-2.07 7.102-17.736-.936-7.794-2.631-6.534-6.729 5m78.398-1.5c-4.911 13.566-4.954 14.253-.896 14.236 7.566-.03 7.875-.382 7.875-8.978 0-16.447-2.3-18.18-6.979-5.258m-76.752 6.725c-.976 3.179-.895 3.525.825 3.525 1.314 0 1.901-.698 1.891-2.25-.029-4.286-1.57-5.009-2.716-1.275m78 0c-.976 3.179-.895 3.525.825 3.525 1.314 0 1.901-.698 1.891-2.25-.029-4.286-1.57-5.009-2.716-1.275" fill-rule="evenodd"/>
<path fill="#246bd6" stroke="#246bd6" d="M140.5 44.945c-5.909 2.419-6 2.91-6 32.413v27.145l2.895 4.574c1.592 2.516 13.861 15.565 27.264 28.999l24.369 24.424-17.223.275-17.223.274-10.541-10.415c-14.419-14.247-16.346-15.042-22.47-9.266-6.587 6.213-5.1 9.861 10.093 24.755C147.33 183.482 145.84 183 177.688 183H204v17.451c0 21.023.909 25.989 5.917 32.325 10.122 12.805 29.071 13.234 39.63.898 5.387-6.293 6.453-10.96 6.453-28.246v-15.216l19.25-.389c23.297-.471 23.483-.54 36.327-13.303 13.855-13.768 15.426-17.671 9.5-23.597-5.626-5.625-8.836-4.524-20.625 7.077l-10.162 10h-8.978c-4.938 0-9.249-.27-9.579-.6-.33-.331 8.425-9.668 19.457-20.75 27.579-27.706 25.24-23.048 25.634-51.074.201-14.256-.07-24.109-.707-25.778-2.322-6.085-11.957-7.359-16.074-2.126-1.903 2.42-2.043 3.975-2.05 22.713-.005 17.463-.236 20.457-1.75 22.706-2.345 3.486-13.812 14.909-14.966 14.909-.877 0-11.92-11.159-21.027-21.247l-4.25-4.708V88.599c0-15.06-.063-15.52-2.527-18.449-4.631-5.503-11.718-5.012-15.514 1.075-1.884 3.02-2.019 4.599-1.744 20.275.386 21.968-.211 20.776 22.01 43.945 4.249 4.43 7.737 8.607 7.75 9.281.014.675-5.574 6.891-12.416 13.813-17.109 17.308-16.977 16.993-17.384 41.707-.348 21.139-.788 22.754-6.206 22.754-5.159 0-5.431-1.206-6.02-26.667-.673-29.141.457-26.485-19.926-46.82C195.76 141.269 189 134.12 189 133.624c0-.967 2.743-4.09 18.425-20.969 17.032-18.335 17.044-18.369 16.419-46.922-.342-15.584-.363-15.71-3.094-18.439-3.838-3.836-9.662-3.835-13.5 0l-2.75 2.748-.5 18.927-.5 18.927-3.5 3.765c-1.925 2.07-6.254 6.706-9.62 10.302A4500.017 4500.017 0 0 0 179.154 114l-5.105 5.5-10.025-10.096L154 99.308l-.1-22.904c-.113-26.094-.269-27.062-4.84-30.143-3.539-2.384-5.291-2.654-8.56-1.316m-91 148.973-6 .582-4.223 27c-2.323 14.85-4.04 27.522-3.816 28.159.472 1.345 18.596.763 24.802-.797 11.067-2.782 16.653-14.956 17.058-37.178l.179-9.817-3.656-3.36c-5.646-5.191-9.888-5.991-24.344-4.589m90.025.009-10.975.573-.775 4.5c-1.075 6.237-.566 7 4.669 7 4.369 0 4.491.084 4.012 2.75-3.13 17.426-6.329 40.777-5.675 41.431 1.154 1.154 13.305-.238 13.815-1.583.229-.604 1.665-10.548 3.191-22.098l2.776-21 4.713-.305c5.113-.33 5.739-1.196 6.072-8.404l.152-3.291-5.5-.073c-3.025-.041-10.439.184-16.475.5m138.303-.024c-3.12.334-5.877.831-6.126 1.103-1.037 1.13-7.633 54.463-6.835 55.261.476.476 3.507.498 6.749.049l5.884-.816 1.401-8.859 1.402-8.858 4.999 9.715 4.999 9.715 3.6-.596c1.979-.327 5.061-.6 6.849-.606 4.375-.015 4.225-.714-2.856-13.359-5.913-10.559-6.337-12.558-2.679-12.637 2.574-.055 7.944-6.755 9.383-11.705 4.372-15.039-4.069-20.843-26.77-18.407m49.013-.16c-5.178.199-9.063.819-9.665 1.545-1.365 1.644-8.388 53.9-7.38 54.908.441.441 7.518.464 15.727.053l14.926-.749.776-4.5c1.174-6.809.936-7-8.705-7h-8.544l.596-4.25c.968-6.917.759-6.75 8.428-6.75 7.803 0 7.812-.008 8.231-7l.269-4.5-7.275.331-7.274.331.652-4.331c.87-5.775 1.268-6.073 9.013-6.748l6.682-.583 1.424-4.896c1.689-5.807.977-6.678-5.222-6.383-2.2.105-7.896.34-12.659.522m39.159.198-9.5.559-4.259 27.441c-2.342 15.093-3.895 27.805-3.451 28.249.444.444 7.524.47 15.733.059l14.926-.749.776-4.5c1.166-6.764.889-7-8.205-7h-8.044l.596-4.25c.963-6.882.809-6.75 7.928-6.75 7.253 0 7.315-.056 7.731-7l.269-4.5-6.772.314-6.772.314.65-4.314c.868-5.764 1.264-6.057 9.087-6.731l6.758-.583.775-4.5c1.323-7.686 2.544-7.28-18.226-6.059m39.841-.198c-5.178.199-9.063.819-9.665 1.545-1.428 1.72-8.371 53.917-7.313 54.975.481.481 3.494.503 6.753.05l5.884-.818 1.5-10.172c1.786-12.108 1.316-11.518 9.729-12.243l6.722-.58.775-4.5c1.192-6.925.851-7.227-7.251-6.429l-7.041.694.661-4.383c.879-5.832 1.266-6.123 9.021-6.799l6.682-.583 1.424-4.896c1.689-5.807.977-6.678-5.222-6.383-2.2.105-7.896.34-12.659.522M98.106 196.25c-11.199 29.853-19.115 53.141-18.331 53.925.581.581 3.259.635 6.835.135l5.878-.821 1.493-5.244c1.459-5.127 1.577-5.245 5.237-5.245 4.046 0 4.444.635 5.012 8l.27 3.5 6-.319c3.3-.176 6.335-.646 6.744-1.044.692-.674-3.738-51.121-4.732-53.887-.897-2.495-13.421-1.626-14.406 1m77.821.5c-.563 1.512-5.325 13.93-10.582 27.594-6.009 15.62-9.207 25.194-8.612 25.789.566.566 3.519.629 7.349.156l6.403-.79 1.495-5.249c1.461-5.132 1.578-5.25 5.238-5.25 4.046 0 4.444.635 5.012 8l.27 3.5 6-.319c3.3-.176 6.335-.646 6.744-1.044.692-.674-3.738-51.121-4.732-53.887-.297-.827-2.667-1.25-7.005-1.25-6.238 0-6.606.134-7.58 2.75m-126.11-.026c-4.337.458-3.648-1.812-7.817 25.776-1.662 11-3.276 21.228-3.586 22.728l-.563 2.728 9.824-.568c17.094-.989 21.767-4.291 24.801-17.523 6.522-28.447 1.567-35.694-22.659-33.141m87.707.022c-5.999.369-7.48 1.257-7.509 4.504-.012 1.406.857 1.75 4.426 1.75 2.443 0 4.668.367 4.945.815.277.448-1.024 10.446-2.891 22.217-1.867 11.771-3.223 21.574-3.012 21.784.21.21 2.214.073 4.453-.305 4.825-.815 4.211 1.163 7.589-24.428 2.99-22.646 2.394-21.083 8.034-21.083 2.443 0 4.447-.338 4.455-.75.007-.412.285-1.762.616-3 .649-2.419-2.539-2.646-21.106-1.504m140.761-.015c-3.849.347-4.264.658-4.777 3.575-1.27 7.217-6.36 47.176-6.049 47.487.185.185 1.962.031 3.948-.342 4.017-.753 3.793-.235 5.801-13.451.711-4.675 1.742-8.468 2.292-8.428.55.04 3.629 5.154 6.842 11.366l5.843 11.294 3.531-.573c4.986-.81 5.043-.393-1.643-12.192-7.217-12.739-6.999-11.136-1.823-13.382 8.563-3.715 12.972-13.115 9.611-20.49-2.25-4.938-8.498-6.228-23.576-4.864m46.033.004c-6.135.432-5.257-2.075-8.844 25.265-1.407 10.725-2.827 21.032-3.156 22.904l-.598 3.404 12.869-.715c12.978-.721 14.364-1.187 14.396-4.843.013-1.531-1.052-1.75-8.516-1.75-9.962 0-9.827.157-8.17-9.5l1.201-7 6.972-.301c7.04-.303 8.484-1.072 8.513-4.528.013-1.635-.753-1.794-7.235-1.5l-7.25.329.33-4.726c.677-9.69 1.047-10.189 8.16-10.982 8.174-.911 8.65-1.128 9.239-4.21.535-2.8-1.46-3.006-17.911-1.847m39.938.002c-4.439.311-5.317.704-5.722 2.565-.264 1.209-1.858 11.423-3.544 22.698s-3.324 21.806-3.64 23.402l-.576 2.903 12.842-.714c12.951-.719 14.337-1.186 14.369-4.841.013-1.523-1.028-1.75-8.016-1.75-9.403 0-9.318.105-7.67-9.5l1.201-7 6.474-.304c6.514-.305 7.982-1.131 8.011-4.508.013-1.603-.766-1.776-6.735-1.5l-6.75.312.33-4.726c.685-9.811.976-10.181 8.692-11.042 6.873-.766 8.434-1.685 8.463-4.982.016-1.828-3.343-2.02-17.729-1.013m39.53.001c-5.548.349-5.73.452-6.271 3.561-1.603 9.216-6.432 47.118-6.051 47.498.243.244 2.022.147 3.951-.215 3.844-.721 3.502.129 5.634-14.003 1.327-8.798.742-8.201 8.825-8.998 6.918-.682 8.037-1.492 8.112-5.878.008-.439-3.248-.664-7.236-.5l-7.25.297.33-4.726c.688-9.85.926-10.142 9.176-11.268 6.84-.934 7.417-1.202 8.093-3.756l.728-2.75-6.163.189c-3.39.104-8.735.351-11.878.549m-303.527 2.012c-4.668 12.053-17.926 48.835-17.697 49.099.167.192 2.033.057 4.148-.3 3.622-.612 3.93-.951 5.321-5.849l1.476-5.2 5.759-.3c6.376-.333 6.209-.498 7.238 7.168l.654 4.868 3.545-.575c1.95-.317 3.725-.756 3.946-.976.406-.407-3.22-40.465-4.204-46.435-.512-3.104-.737-3.25-5.022-3.25-3.347 0-4.658.444-5.164 1.75m78.182-.5c-7.389 18.634-19.087 49.333-18.889 49.575.145.179 2.289.021 4.764-.35 4.207-.631 4.543-.91 5.18-4.306 1.214-6.471 2-7.169 8.071-7.169 6.024 0 5.936-.094 6.934 7.347l.651 4.847 3.674-.686c2.021-.378 3.785-.795 3.921-.927.288-.281-3.56-41.525-4.322-46.331-.493-3.107-.713-3.25-5.002-3.25-2.657 0-4.688.509-4.982 1.25m-124.835 3.578c-.93 1.505-5.614 38.35-5.001 39.342.655 1.06 7.785.181 10.624-1.31 2.079-1.091 4.301-8.54 5.725-19.182 1.681-12.572 1.442-15.221-1.589-17.605-2.614-2.056-8.772-2.842-9.759-1.245m227.891.422c-1.152 3.268-2.404 18.243-1.593 19.054 3.972 3.972 15.096-5.842 15.096-13.32 0-4.914-11.997-10.008-13.503-5.734m-225.95 3c-.694 2.22-4.429 33.201-4.049 33.582.837.836 7.372-2.05 7.929-3.503 2.67-6.957 4.34-28.162 2.373-30.129-1.576-1.576-5.756-1.542-6.253.05m228.032 1c-.86 4.224-1.649 12.75-1.179 12.75 4.008 0 9.589-6.232 9.596-10.715.007-4.22-7.596-6.059-8.417-2.035m-180.926 3.503c-2.036 3.295-7.549 20.751-6.792 21.508.531.531 2.701.542 5.271.025l4.368-.879-.34-9.953c-.319-9.305-1.157-12.885-2.507-10.701m77.939.098c-2.12 3.43-7.539 20.602-6.75 21.391.552.552 2.674.569 5.29.042l4.368-.88-.327-9.952c-.309-9.419-1.158-12.904-2.581-10.601m-79.372 11.443c-2.332 5.412-2.57 7.706-.797 7.706 2.128 0 2.794-1.879 2.356-6.645l-.354-3.855-1.205 2.794m78 0c-2.332 5.412-2.57 7.706-.797 7.706 2.128 0 2.794-1.879 2.356-6.645l-.354-3.855-1.205 2.794" fill-rule="evenodd"/>
<path fill="#2f3f58" stroke="#2f3f58" d="M138.077 47.589 135 50.178l.022 26.161c.02 23.535.213 26.581 1.921 30.344 1.289 2.838 10.155 12.459 27.565 29.912 20.845 20.897 25.361 25.899 24.048 26.634-.89.498-8.999.762-18.02.588l-16.403-.317-10.489-10.449c-5.769-5.748-11.537-10.838-12.817-11.313-3.821-1.417-8.218-.038-10.115 3.172-3.696 6.258-1.611 10.156 12.912 24.132C148.04 182.916 148.329 183 181.549 183H205v19.417c0 16.86.25 20.001 1.901 23.853 2.196 5.122 7.661 11.73 9.703 11.73.768 0 1.396.378 1.396.84 0 1.383 10.557 3.483 14.707 2.926 5.345-.717 12.288-4.063 15.429-7.436 5.708-6.129 6.299-8.485 6.851-27.33l.513-17.5 20-.529c23.81-.629 22.538-.145 36.539-13.913 13.127-12.908 14.556-17.214 7.498-22.597-5.667-4.323-7.266-3.596-19.886 9.039l-8.989 9h-9.748c-5.361 0-10.067-.32-10.458-.711-.391-.391 8.855-10.291 20.547-22 13.331-13.351 21.946-22.78 23.105-25.289 1.628-3.523 1.851-6.778 1.87-27.295L316 71.909l-2.455-2.454c-3.847-3.848-9.686-3.448-12.994.889-2.544 3.335-2.551 3.404-2.551 23.929v20.584l-8.05 8.072c-4.427 4.439-8.397 8.071-8.822 8.071-.722 0-8.727-8.137-20.878-21.226L255 104.12V72.081l-2.74-2.541c-3.754-3.48-9.046-3.462-12.336.043-2.387 2.544-2.424 2.868-2.424 21.3v18.716l3 4.595c1.65 2.527 6.328 8.129 10.397 12.45 4.068 4.321 9.355 9.948 11.75 12.505 2.394 2.557 4.353 5.098 4.353 5.647 0 .549-5.627 6.691-12.504 13.649-17.19 17.391-16.786 16.434-17.453 41.364-.54 20.198-.557 20.319-3.043 22.227-3.37 2.587-5.244 2.447-8.313-.622l-2.585-2.585-.301-23.165c-.369-28.435.815-25.622-19.342-45.934-8.502-8.568-15.457-15.95-15.454-16.404.005-.892.377-1.31 18.762-21.065 16.456-17.682 16.184-16.984 16.211-41.588L223 50.846l-2.923-2.923c-3.107-3.107-6.343-3.67-10.42-1.813-4.065 1.853-4.657 4.823-4.657 23.379v17.396l-10.335 11.307C177.276 117.217 175.51 119 174.059 119c-.771 0-5.712-4.337-10.98-9.638l-9.579-9.639-.5-24.95-.5-24.95-2.806-2.412c-3.65-3.137-7.752-3.074-11.617.178m1.578 2.24c-2.436 2.692-2.486 50.605-.058 55.471.879 1.76 14.212 15.861 29.63 31.336 16.474 16.535 27.748 28.595 27.343 29.25-.47.761-7.318 1.114-21.626 1.114h-20.938l-3.953-3.571c-2.174-1.964-7.521-7.139-11.882-11.5-8.301-8.301-11.335-9.622-14.6-6.358-3.588 3.588-2.09 6.405 9.681 18.206 16.184 16.227 11.47 14.641 45.248 15.223l29 .5.5 22c.534 23.49.817 24.885 6.192 30.5 8.366 8.74 22.668 8.286 28.873-.918 4.605-6.83 4.935-8.554 4.935-25.79 0-15.638.102-16.506 2-17.002 1.1-.288 2-.921 2-1.407 0-.485 8.399-.883 18.664-.883 22.924 0 22.865.022 35.792-13.107 9.483-9.629 9.657-9.893 9.353-14.094-.504-6.983-2.619-6.244-13.927 4.867l-10.009 9.834-12.316.35c-22.179.629-22.054-.149 4.286-26.499 27.044-27.055 26.044-25.054 26.113-52.235.047-18.759-.985-25.116-4.079-25.116-3.319 0-3.877 3.38-3.877 23.5 0 22.862.557 21.18-10.84 32.75-9.895 10.046-10.591 10.245-15.726 4.5-2.089-2.338-8.217-8.926-13.616-14.642L252 105.717V90.081C252 72.876 251.194 70 246.372 70 241.359 70 241 71.39 241 90.778c0 20.693-.315 19.827 12 32.968 15.372 16.404 19.054 20.591 18.785 21.363-.157.451-6.405 7.023-13.884 14.605C240.369 177.486 241 176.052 241 198.133c0 20.122-.907 24.157-6.095 27.117-4.496 2.565-7.327 2.161-11.334-1.618L220 220.264v-20.951c0-29.468.778-27.533-19.148-47.617-19.64-19.795-18.729-18.192-13.495-23.739C221.746 91.516 220 94.643 220 69.491 220 50.569 219.565 49 214.325 49c-5.883 0-6.257 1.25-6.293 21.027-.034 18.845-.02 18.785-5.897 24.866-1.449 1.5-6.685 7.155-11.635 12.568C178.093 121.028 175.166 124 174.214 124c-.451 0-6.084-5.329-12.517-11.843L150 100.315V77.807c0-23.867-.641-28.209-4.313-29.193-3.414-.916-4.258-.746-6.032 1.215m1.786 20.465C140.289 73.296 141.43 81.5 143 81.5c1.957 0 2.194-11.602.251-12.25-.688-.229-1.502.241-1.81 1.044M51 193.946c-7.457.551-7.502.571-7.803 3.554-.167 1.65-2.001 13.934-4.076 27.299-2.272 14.631-3.395 24.531-2.824 24.885 1.452.897 18.735.344 22.802-.73 9.1-2.402 14.014-8.813 16.428-21.433 5.345-27.934-.094-35.378-24.527-33.575m93.35-.199c-15.464.335-15.975.53-16.461 6.267-.411 4.845.586 5.986 5.231 5.986h4.003l-.709 4.75c-.39 2.613-1.919 12.175-3.4 21.25-1.48 9.075-2.35 16.952-1.934 17.504.44.584 3.4.793 7.088.5l6.332-.504 2.929-22.25 2.929-22.25h4.199c2.309 0 4.661-.562 5.227-1.25 2.124-2.58 1.636-11.24-.593-10.53-.38.121-7.058.358-14.841.527m136.15-.01c-3.85.201-7.45.811-8 1.356-1.304 1.292-8.33 53.677-7.333 54.674.42.42 3.365.531 6.545.248l5.783-.515.762-6c1.836-14.467 1.279-14.23 7.084-3.019l5.159 9.963 6-.294c3.3-.163 6.372-.657 6.826-1.098.454-.442-2.085-5.922-5.643-12.178l-6.468-11.374 3.496-1.714c6.855-3.359 10.286-9.021 10.451-17.244.206-10.242-6.548-13.748-24.662-12.805m49.329.2c-6.419.31-12.044.934-12.5 1.387-1.34 1.332-8.067 53.72-6.984 54.389 1.841 1.138 28.101.221 29.328-1.023 1.402-1.423 2.049-7.712.973-9.454-.505-.816-3.507-1.236-8.836-1.236h-8.072l.62-3.75c.341-2.062.625-4.537.631-5.5.009-1.496 1.009-1.75 6.889-1.75 7.743 0 8.782-.696 9.249-6.196.416-4.902-.021-5.178-7.752-4.897l-6.624.24.722-4.824c.969-6.472.78-6.323 7.964-6.323 6.932 0 7.606-.454 9.292-6.263.956-3.296.863-3.885-.753-4.75-1.014-.543-1.987-.903-2.16-.8-.174.104-5.568.441-11.987.75m40.186-.188c-6.317.176-11.94.776-12.496 1.332-1.5 1.5-9.35 53.905-8.183 54.627 1.847 1.141 28.106.23 29.337-1.018 1.402-1.423 2.049-7.712.973-9.454-.498-.805-3.404-1.236-8.336-1.236h-7.572l.62-3.75c.341-2.062.625-4.537.631-5.5.009-1.483.986-1.75 6.389-1.75 7.205 0 8.289-.767 8.749-6.196.413-4.87-.069-5.195-7.259-4.902l-6.118.25.722-4.826c.97-6.476.781-6.326 7.965-6.326 3.839 0 6.722-.49 7.347-1.25 2.124-2.58 1.637-11.226-.593-10.536-.38.117-5.859.358-12.176.535m38.814.188c-6.419.31-12.044.934-12.5 1.387-1.406 1.397-8.063 53.722-6.925 54.426 1.487.919 9.93.256 11.096-.871.55-.532 1.675-5.559 2.5-11.173l1.5-10.206 6.664-.294c7.447-.328 8.512-1.089 8.963-6.402.416-4.902-.021-5.178-7.752-4.897l-6.624.24.722-4.824c.969-6.472.78-6.323 7.964-6.323 6.932 0 7.606-.454 9.292-6.263.956-3.296.863-3.885-.753-4.75-1.014-.543-1.987-.903-2.16-.8-.174.104-5.568.441-11.987.75m-309.492 1.268c-2.229 3.449-19.962 53.426-19.271 54.313.463.593 3.186.802 6.536.5l5.742-.518 1.456-5.25 1.456-5.25H104v4.941c0 5.789.831 6.527 6.959 6.175 7.1-.408 6.988.386 4.118-29.116l-2.577-26.5-6.163-.295c-4.224-.203-6.426.112-7 1m78-.013c-2.3 3.527-20.929 53.446-20.268 54.312.446.583 3.388.792 7.021.5l6.254-.504 1.456-5.25 1.456-5.25H182v4.941c0 5.789.831 6.527 6.959 6.175 7.1-.408 6.988.386 4.118-29.116l-2.577-26.5-6.163-.295c-4.193-.201-6.43.114-7 .987m-129.355 1.502c-2.482.388-2.566.713-5.872 22.6a11520.89 11520.89 0 0 1-3.872 25.512l-.518 3.306 10.583-.482c20.119-.916 25.045-7.043 26.41-32.842.647-12.238-.306-14.884-6.259-17.372-3.157-1.319-14.177-1.708-20.472-.722m83.268-.032c-.687.278-1.25 1.817-1.25 3.421 0 2.785.201 2.917 4.441 2.917 2.443 0 4.618.338 4.834.75.215.412-1.084 9.75-2.888 20.75-4.169 25.417-4.198 23.503.363 23.485 5.754-.024 5.77-.065 8.853-23.485l2.897-22 5.25-.302c5.078-.293 5.25-.399 5.25-3.25V196l-13.25.079c-7.287.043-13.812.306-14.5.583m144.726.032c-2.515.394-2.537.487-5.78 25.101-1.79 13.588-3.241 25.068-3.225 25.512.016.445 1.942.67 4.279.5l4.25-.307 1.423-10.75c.844-6.377 1.876-10.75 2.536-10.75.613 0 3.556 4.95 6.541 11l5.427 11h4.228c5.883 0 5.867-.178-1.166-12.5-6.808-11.926-6.814-11.957-2.748-12.957 8.392-2.064 14.163-14.248 10.229-21.598-2.324-4.344-13.605-6.188-25.994-4.251m44.002-.049c-1.241.338-8.243 44.586-8.007 50.605.035.891 23.159 1.021 25.447.143.938-.36 1.582-1.784 1.582-3.5V241h-8.333c-4.584 0-8.551-.217-8.816-.483-.266-.265-.001-3.978.589-8.25l1.071-7.767 7.745-.292 7.744-.292v-6.05l-7.239.235-7.24.234.325-3.417c.179-1.88.631-5.218 1.004-7.418l.678-4 7.278-.295c7.364-.298 9.194-1.546 9.194-6.27 0-.901-19.852-1.151-23.022-.29m39.464.12c-.805.559-8.537 46.712-8.458 50.485.019.891 23.146 1.021 25.434.143.938-.36 1.582-1.784 1.582-3.5V241h-7.833c-4.309 0-8.051-.217-8.316-.483-.266-.265-.001-3.978.588-8.25l1.072-7.767 7.244-.294 7.245-.294v-6.05l-6.74.245-6.74.244.326-3.426c.179-1.884.63-5.225 1.002-7.425l.677-4 7.488-.5 7.487-.5.313-3.25.314-3.25-10.814.015c-5.947.009-11.289.346-11.871.75m39.536-.12c-1.247.339-8.23 44.522-8.007 50.662.016.445 1.942.67 4.279.5l4.25-.307 1.5-11 1.5-11 5.5-.259c8.992-.424 10-.862 10-4.35v-3.071l-7.246.335-7.246.335.332-3.495c.182-1.922.636-5.295 1.008-7.495l.677-4 7.158-.5c8.048-.562 7.9-.491 8.844-4.252l.69-2.748-10.859.116c-5.972.064-11.543.302-12.38.529M91.586 221.25a18348.015 18348.015 0 0 1-9.357 25.564c-.369.987.591 1.236 3.859 1 4.338-.313 4.357-.331 6.004-5.814l1.653-5.5H105.5l.3 5.75.3 5.75h4.45c5.382 0 5.161 2.705 2.265-27.75l-2.21-23.25h-10.154l-8.865 24.25m77.682-.5c-5.011 13.063-9.43 24.565-9.82 25.56-.633 1.618-.194 1.777 4.141 1.5l4.85-.31 1.653-5.5 1.653-5.5H183.5l.3 5.75.3 5.75h4.45c5.35 0 5.102 2.962 2.278-27.25l-2.22-23.75h-10.229l-9.111 23.75m-115.739-18.5c-.678 2.078-5.191 38.754-4.815 39.131 1.024 1.024 10.011-1.647 11.472-3.409 2.978-3.595 6.769-29.319 4.849-32.906-1.721-3.216-10.661-5.404-11.506-2.816m228.205-.614c-.528.868-2.054 16.993-1.785 18.864.196 1.365 4.972.643 8.165-1.234 5.664-3.33 7.929-11.667 4.187-15.41-2.111-2.111-9.668-3.699-10.567-2.22M53.175 220.701C50.516 240.895 50.494 239 53.389 239c5.986 0 10.156-12.508 9.409-28.222L62.5 204.5l-3.557-.299-3.556-.299-2.212 16.799m229.384-9.604c-.813 8.25-.641 8.594 3.456 6.897 7.74-3.206 8.059-13.994.414-13.994h-3.171l-.699 7.097m-179.995-1.014c-.276.779-2.057 5.764-3.957 11.076-1.9 5.313-3.279 9.835-3.065 10.05.215.215 2.523.143 5.129-.159l4.739-.55-.281-10c-.261-9.309-1.367-13.801-2.565-10.417m78 0c-.276.779-2.057 5.764-3.957 11.076-1.9 5.313-3.279 9.835-3.065 10.05.215.215 2.523.143 5.129-.159l4.739-.55-.281-10c-.261-9.309-1.367-13.801-2.565-10.417m-79.079 9.167c-3.606 9.973-3.584 9.75-.941 9.75 2.31 0 2.456-.326 2.456-5.5 0-5.295-.564-6.878-1.515-4.25m78 0c-3.606 9.973-3.584 9.75-.941 9.75 2.31 0 2.456-.326 2.456-5.5 0-5.295-.564-6.878-1.515-4.25" fill-rule="evenodd"/>
</svg>